<?xml version="1.0" encoding="UTF-8" standalone="no"?>
<svg xmlns="http://www.w3.org/2000/svg" viewBox="0 0 500 600">
  <!-- Background -->
  <rect width="500" height="600" fill="#f5f5f5"/>
  
  <!-- Professional Silhouette - Female -->
  <g fill="#202030">
    <!-- Head and Hair -->
    <path d="M250 120 
             C290 120, 320 150, 320 200
             C320 220, 315 235, 310 245
             C305 255, 300 260, 295 265
             L295 280
             C330 290, 350 320, 350 360
             L350 480
             L150 480
             L150 360
             C150 320, 170 290, 205 280
             L205 265
             C200 260, 195 255, 190 245
             C185 235, 180 220, 180 200
             C180 150, 210 120, 250 120 Z" />
    
    <!-- Long Hair -->
    <path d="M180 200
             C180 150, 210 120, 250 120
             C290 120, 320 150, 320 200
             C340 200, 345 230, 342 260
             C340 280, 335 300, 330 310
             C325 320, 320 325, 315 330
             L315 260
             C315 240, 310 225, 305 215
             C300 205, 295 200, 290 195
             C280 185, 270 180, 255 180
             C240 180, 230 185, 220 195
             C215 200, 210 205, 205 215
             C200 225, 195 240, 195 260
             L195 330
             C190 325, 185 320, 180 310
             C175 300, 170 280, 168 260
             C165 230, 170 200, 180 200 Z" />
    
    <!-- Suit/Blazer with more fitted waist -->
    <path d="M205 280
             L205 300
             L190 320
             L180 360
             L165 480
             L335 480
             L320 360
             L310 320
             L295 300
             L295 280
             C280 285, 270 295, 250 295
             C230 295, 220 285, 205 280 Z" />
             
    <!-- Collar/Blouse -->
    <path d="M205 300
             L230 330 
             L250 310
             L270 330
             L295 300
             L270 320
             L250 300
             L230 320
             L205 300 Z" fill="#ffffff" />
  </g>
  
  <!-- Professional Detail Lines -->
  <rect x="150" y="520" width="200" height="2" fill="#202030" />
  <rect x="180" y="540" width="140" height="2" fill="#202030" />
</svg>